<?xml version="1.0" encoding="UTF-8" standalone="no"?>
<!-- Converted with SVG Converter - Version 0.9.5 (Compiled Mon May 30 09:08:51 2011) - Copyright (C) 2011 Nokia -->

<svg
   xmlns:dc="http://purl.org/dc/elements/1.1/"
   xmlns:cc="http://creativecommons.org/ns#"
   xmlns:rdf="http://www.w3.org/1999/02/22-rdf-syntax-ns#"
   xmlns:svg="http://www.w3.org/2000/svg"
   xmlns="http://www.w3.org/2000/svg"
   xmlns:sodipodi="http://sodipodi.sourceforge.net/DTD/sodipodi-0.dtd"
   xmlns:inkscape="http://www.inkscape.org/namespaces/inkscape"
   width="60px"
   x="0px"
   y="0px"
   version="1.1"
   viewBox="0 0 60 60"
   height="60px"
   id="Layer_1"
   xml:space="preserve"
   inkscape:version="0.48.1 "
   sodipodi:docname="drv_select_action.svg"><sodipodi:namedview
   pagecolor="#ffffff"
   bordercolor="#666666"
   borderopacity="1"
   objecttolerance="10"
   gridtolerance="10"
   guidetolerance="10"
   inkscape:pageopacity="0"
   inkscape:pageshadow="2"
   inkscape:window-width="1084"
   inkscape:window-height="701"
   id="namedview14"
   showgrid="true"
   inkscape:zoom="8.0842105"
   inkscape:cx="30"
   inkscape:cy="30"
   inkscape:window-x="0"
   inkscape:window-y="0"
   inkscape:window-maximized="0"
   inkscape:current-layer="Layer_1"><inkscape:grid
     type="xygrid"
     id="grid3022"
     empspacing="5"
     visible="true"
     enabled="true"
     snapvisiblegridlinesonly="true" /></sodipodi:namedview>
 <metadata
   id="metadata17"><rdf:RDF><cc:Work
       rdf:about=""><dc:format>image/svg+xml</dc:format><dc:type
         rdf:resource="http://purl.org/dc/dcmitype/StillImage" /></cc:Work></rdf:RDF></metadata>
 <defs
   id="defs15">
  <linearGradient
   id="linearGradient4109"
   y1="29.931213"
   x1="2.7770469"
   y2="29.931213"
   x2="56.302109"
   gradientUnits="userSpaceOnUse">
   <stop
   offset="0"
   style="stop-color:#FFFFFF"
   id="stop4" />
   <stop
   offset="1"
   style="stop-color:#D7D9D8"
   id="stop6" />
  </linearGradient>
 </defs>
 <linearGradient
   gradientTransform="matrix(1.8532329,0,0,-1.8380215,-561.03849,-611.80573)"
   id="SVGID_1_"
   y1="-334.4751"
   x1="318.3818"
   y2="-361.155"
   gradientUnits="userSpaceOnUse"
   x2="318.9154">
  <stop
   offset="0"
   style="stop-color:#FFFFFF"
   id="stop9" />
  <stop
   offset="1"
   style="stop-color:#D7D9D8"
   id="stop11" />
 </linearGradient>
 <path
   style="fill:url(#linearGradient4109);stroke:#696b6c;stroke-width:2.5;stroke-miterlimit:4;stroke-dasharray:none;stroke-opacity:1;fill-opacity:1.0"
   id="path8"
   d="M 55.052108,52.291664 C 55.052108,54.449502 53.469447,56.21584 51.490194,56.21584 L 7.5871073,56.21584 C 5.6097077,56.21584 4.0270468,54.449502 4.0270468,52.291664 L 4.0270468,7.5689249 C 4.0270468,6.3976085 4.5519681,5.2853765 5.2360552,4.6219778 C 5.9201422,3.9585791 6.6830794,3.6465874 7.5871073,3.6465874 C 7.5871073,3.6465874 1.7226412,3.6465874 12.698413,3.6465874 C 23.674185,3.6465874 51.490194,3.6465874 51.490194,3.6465874 C 53.469447,3.6465874 55.052108,5.4110884 55.052108,7.5689249 L 55.052108,52.291664 z " />
<path
   style="fill:#05bf1d;fill-opacity:1;stroke:#000000;stroke-width:0.49388148999999998px;stroke-linecap:butt;stroke-linejoin:miter;stroke-opacity:1"
   d="m 8,10 0,19 20.540541,0 0,-17.575 L 27,10 z"
   id="path3806"
   inkscape:connector-curvature="0" /><path
   style="fill:none;stroke:#000000;stroke-width:0.51121593px;stroke-linecap:butt;stroke-linejoin:miter;stroke-opacity:1"
   d="m 13.135135,10 0,7.125 0,-0.508929"
   id="path3810"
   inkscape:connector-curvature="0" /><path
   style="fill:none;stroke:#000000;stroke-width:0.49388149px;stroke-linecap:butt;stroke-linejoin:miter;stroke-opacity:1"
   d="m 10.567568,10 0,7.125 15.405405,0 0,-7.125"
   id="path3814"
   inkscape:connector-curvature="0" /><path
   style="fill:#05bf0c;fill-opacity:1;stroke:#000000;stroke-width:0.49388148999999998px;stroke-linecap:butt;stroke-linejoin:miter;stroke-opacity:1"
   d="m 10.567568,29 0,-9.5 15.405405,0 0,9.5"
   id="path3818"
   inkscape:connector-curvature="0" /><path
   style="fill:none;stroke:#000000;stroke-width:0.49388149px;stroke-linecap:butt;stroke-linejoin:miter;stroke-opacity:1"
   d="m 10.567568,26.625 15.405405,0 0,0.475"
   id="path3820"
   inkscape:connector-curvature="0" /><path
   style="fill:none;stroke:#000000;stroke-width:0.49388149px;stroke-linecap:butt;stroke-linejoin:miter;stroke-opacity:1"
   d="m 27,26.625 0,0.95"
   id="path3824"
   inkscape:connector-curvature="0" /><path
   style="fill:#bf0505;fill-opacity:1;stroke:#000000;stroke-width:0.38729835px;stroke-linecap:butt;stroke-linejoin:miter;stroke-opacity:1"
   d="m 32.8,14.125 0,15 16,0 0,-13.875 -1.2,-1.125 z"
   id="path3806-7"
   inkscape:connector-curvature="0" /><path
   style="fill:none;stroke:#000000;stroke-width:0.40089187px;stroke-linecap:butt;stroke-linejoin:miter;stroke-opacity:1"
   d="m 36.8,14.125 0,5.625 0,-0.401786"
   id="path3810-8"
   inkscape:connector-curvature="0" /><path
   style="fill:none;stroke:#000000;stroke-width:0.38729835px;stroke-linecap:butt;stroke-linejoin:miter;stroke-opacity:1"
   d="m 34.8,14.125 0,5.625 12,0 0,-5.625"
   id="path3814-1"
   inkscape:connector-curvature="0" /><path
   style="fill:#bf0505;fill-opacity:1;stroke:#000000;stroke-width:0.38729835px;stroke-linecap:butt;stroke-linejoin:miter;stroke-opacity:1"
   d="m 34.8,29.125 0,-7.5 12,0 0,7.5"
   id="path3818-1"
   inkscape:connector-curvature="0" /><path
   style="fill:none;stroke:#000000;stroke-width:0.38729835px;stroke-linecap:butt;stroke-linejoin:miter;stroke-opacity:1"
   d="m 34.8,27.25 12,0 0,0.375"
   id="path3820-2"
   inkscape:connector-curvature="0" /><path
   style="fill:none;stroke:#000000;stroke-width:0.38729835px;stroke-linecap:butt;stroke-linejoin:miter;stroke-opacity:1"
   d="m 47.6,27.25 0,0.75"
   id="path3824-5"
   inkscape:connector-curvature="0" /><path
   style="fill:#bf0505;fill-opacity:1;stroke:#000000;stroke-width:0.38729835px;stroke-linecap:butt;stroke-linejoin:miter;stroke-opacity:1"
   d="m 10.2,34.651786 0,15 16,0 0,-13.875 -1.2,-1.125 z"
   id="path3806-5"
   inkscape:connector-curvature="0" /><path
   style="fill:none;stroke:#000000;stroke-width:0.40089187px;stroke-linecap:butt;stroke-linejoin:miter;stroke-opacity:1"
   d="m 14.2,34.651786 0,5.625 0,-0.401786"
   id="path3810-1"
   inkscape:connector-curvature="0" /><path
   style="fill:none;stroke:#000000;stroke-width:0.38729835px;stroke-linecap:butt;stroke-linejoin:miter;stroke-opacity:1"
   d="m 12.2,34.651786 0,5.625 12,0 0,-5.625"
   id="path3814-12"
   inkscape:connector-curvature="0" /><path
   style="fill:#bf0505;fill-opacity:1;stroke:#000000;stroke-width:0.38729835px;stroke-linecap:butt;stroke-linejoin:miter;stroke-opacity:1"
   d="m 12.2,49.651786 0,-7.5 12,0 0,7.5"
   id="path3818-6"
   inkscape:connector-curvature="0" /><path
   style="fill:none;stroke:#000000;stroke-width:0.38729835px;stroke-linecap:butt;stroke-linejoin:miter;stroke-opacity:1"
   d="m 12.2,47.776786 12,0 0,0.375"
   id="path3820-6"
   inkscape:connector-curvature="0" /><path
   style="fill:none;stroke:#000000;stroke-width:0.38729835px;stroke-linecap:butt;stroke-linejoin:miter;stroke-opacity:1"
   d="m 25,47.776786 0,0.75"
   id="path3824-3"
   inkscape:connector-curvature="0" /><path
   style="fill:#bf0505;fill-opacity:1;stroke:#000000;stroke-width:0.38729835px;stroke-linecap:butt;stroke-linejoin:miter;stroke-opacity:1"
   d="m 33,34.776786 0,15 16,0 0,-13.875 -1.2,-1.125 z"
   id="path3806-7-3"
   inkscape:connector-curvature="0" /><path
   style="fill:none;stroke:#000000;stroke-width:0.40089187px;stroke-linecap:butt;stroke-linejoin:miter;stroke-opacity:1"
   d="m 37,34.776786 0,5.625 L 37,40"
   id="path3810-8-0"
   inkscape:connector-curvature="0" /><path
   style="fill:none;stroke:#000000;stroke-width:0.38729835px;stroke-linecap:butt;stroke-linejoin:miter;stroke-opacity:1"
   d="m 35,34.776786 0,5.625 12,0 0,-5.625"
   id="path3814-1-8"
   inkscape:connector-curvature="0" /><path
   style="fill:#bf0505;fill-opacity:1;stroke:#000000;stroke-width:0.38729835px;stroke-linecap:butt;stroke-linejoin:miter;stroke-opacity:1"
   d="m 35,49.776786 0,-7.5 12,0 0,7.5"
   id="path3818-1-1"
   inkscape:connector-curvature="0" /><path
   style="fill:none;stroke:#000000;stroke-width:0.38729835px;stroke-linecap:butt;stroke-linejoin:miter;stroke-opacity:1"
   d="m 35,47.901786 12,0 0,0.375"
   id="path3820-2-3"
   inkscape:connector-curvature="0" /><path
   style="fill:none;stroke:#000000;stroke-width:0.38729835px;stroke-linecap:butt;stroke-linejoin:miter;stroke-opacity:1"
   d="m 47.8,47.901786 0,0.75"
   id="path3824-5-8"
   inkscape:connector-curvature="0" /><path
   style="fill:#05bf0c;stroke:#1b3fef;stroke-width:1px;stroke-linecap:round;stroke-linejoin:round;stroke-opacity:1;fill-opacity:1"
   d="m 13,21 2,4 9,-4"
   id="path3927"
   inkscape:connector-curvature="0" /></svg>